<?xml version="1.0" encoding="UTF-8" standalone="no"?>
<svg
   width="1141.6332"
   height="1141.6332"
   viewBox="0 0 1141.6332 1141.6332"
   version="1.1"
   id="svg12"
   xmlns:xlink="http://www.w3.org/1999/xlink"
   xmlns="http://www.w3.org/2000/svg"
   xmlns:svg="http://www.w3.org/2000/svg">
  <defs
     id="defs12">
    <!-- Fork variant: yellow/orange outer ring, original blue inner W -->
    <radialGradient
       id="outerRing"
       cx="502"
       cy="502"
       r="575"
       gradientUnits="userSpaceOnUse">
      <stop
         offset="0%"
         stop-color="#F5D547"
         id="stop1" />
      <stop
         offset="60%"
         stop-color="#F9A825"
         id="stop2" />
      <stop
         offset="100%"
         stop-color="#F57C00"
         id="stop3" />
    </radialGradient>
    <radialGradient
       id="grad"
       cx="502"
       cy="502"
       r="575"
       gradientUnits="userSpaceOnUse">
      <stop
         offset="0%"
         stop-color="#50c6f7"
         id="stop4" />
      <stop
         offset="100%"
         stop-color="#00528a"
         id="stop5" />
    </radialGradient>
    <linearGradient
       id="standGrad"
       x1="0"
       y1="900"
       x2="0"
       y2="1141"
       gradientUnits="userSpaceOnUse"
       gradientTransform="matrix(1,0,0,1.0003215,69,0)">
      <stop
         offset="0%"
         stop-color="#6b7280"
         id="stop6" />
      <stop
         offset="100%"
         stop-color="#4b5563"
         id="stop7" />
    </linearGradient>
    <radialGradient
       xlink:href="#grad"
       id="radialGradient15"
       gradientUnits="userSpaceOnUse"
       cx="502"
       cy="502"
       r="575" />
    <radialGradient
       xlink:href="#grad"
       id="radialGradient16"
       gradientUnits="userSpaceOnUse"
       cx="502"
       cy="502"
       r="575" />
    <radialGradient
       xlink:href="#outerRing"
       id="radialGradient17"
       gradientUnits="userSpaceOnUse"
       cx="502"
       cy="502"
       r="575"
       gradientTransform="matrix(1,0,0,1.0003215,69,0)" />
    <radialGradient
       xlink:href="#outerRing"
       id="radialGradient18"
       gradientUnits="userSpaceOnUse"
       cx="502"
       cy="502"
       r="575"
       gradientTransform="matrix(1,0,0,1.0003215,69,0)" />
    <radialGradient
       xlink:href="#outerRing"
       id="radialGradient19"
       gradientUnits="userSpaceOnUse"
       cx="502"
       cy="502"
       r="575"
       gradientTransform="matrix(1,0,0,1.0003215,69,0)" />
    <radialGradient
       xlink:href="#outerRing"
       id="radialGradient20"
       gradientUnits="userSpaceOnUse"
       cx="502"
       cy="502"
       r="575"
       gradientTransform="matrix(1,0,0,1.0003215,69,0)" />
    <radialGradient
       xlink:href="#outerRing"
       id="radialGradient21"
       gradientUnits="userSpaceOnUse"
       cx="502"
       cy="502"
       r="575"
       gradientTransform="matrix(1,0,0,1.0003215,69,0)" />
    <radialGradient
       xlink:href="#outerRing"
       id="radialGradient22"
       gradientUnits="userSpaceOnUse"
       cx="502"
       cy="502"
       r="575"
       gradientTransform="matrix(1,0,0,1.0003215,69,0)" />
    <radialGradient
       xlink:href="#outerRing"
       id="radialGradient23"
       gradientUnits="userSpaceOnUse"
       cx="502"
       cy="502"
       r="575"
       gradientTransform="matrix(1,0,0,1.0003215,69,0)" />
  </defs>
  <path
     fill="url(#standGrad)"
     d="m 264.9892,914.22686 c 51.20001,-0.52017 102.40302,-0.61019 153.60403,-0.25008 l 250.84707,-0.35011 c 49.91001,-0.34011 99.82002,-0.23008 149.73003,0.3101 61.03001,0.35011 105.99002,-5.75185 154.47003,40.1929 29.62004,27.93898 46.81004,66.57133 47.75004,107.28443 0.92,38.5124 7.75,80.2958 -45.77004,79.6556 -8.26,-0.09 -16.99,0.01 -25.3,0.04 l -72.44002,0.2101 -454.9491,0.6802 -169.53304,-0.6202 -64.16901,-0.08 c -16.93101,-0.08 -40.43501,2.8709 -53.58701,-9.0029 -10.065,-9.0929 -12.425,-20.8167 -13.174,-33.7109 -3.03,-52.1267 3.996,-97.3112 40.84,-137.03394 26.39301,-28.47914 62.90101,-45.4746 101.68102,-47.3252 z"
     id="path1"
     style="fill:url(#standGrad);stroke-width:1.00016" />
  <path
     fill="url(#outerRing)"
     d="m 600.95028,108.67012 c 4.75,-0.24908 9.08001,-0.27208 13.84001,0.049 204.90004,13.82144 365.12008,206.07718 350.70007,410.40982 -8.25,106.64525 -58.35001,205.69706 -139.35003,275.51949 -58.49001,50.66628 -137.48003,84.47714 -214.64004,90.72914 -32.65001,2.65085 -66.53002,1.41045 -99.17703,-0.90028 -7.53901,-1.01032 -13.23801,-1.73056 -20.48901,-4.9916 -31.24001,-14.04452 -24.983,-62.22999 7.666,-69.51233 14.01802,-2.25073 28.84702,1.90061 42.97002,3.35107 C 741.62031,833.75101 916.05035,649.33178 887.27035,451.78233 881.94034,415.22359 866.90034,372.945 848.77034,340.61462 809.32033,271.14031 744.91031,219.29966 668.6203,195.63206 c -9.88,-2.98896 -19.90001,-5.46676 -30.04001,-7.42439 -24.96,-4.6885 -59.66001,-3.49712 -67.88001,-32.63648 -2.78,-9.98021 -1.34,-20.66364 3.98,-29.54949 6.66,-11.05255 14.62,-14.55268 26.27,-17.35158 z"
     id="path2"
     style="fill:url(#radialGradient23);stroke-width:1.00016" />
  <path
     fill="url(#outerRing)"
     d="m 470.87025,118.67634 c 8.495,-0.52117 14.744,-0.28509 22.765,3.57915 9.513,4.6625 16.70001,13.02218 19.88302,23.12942 4.187,13.57536 -0.456,30.46279 -11.73202,38.36133 -18.29,12.42299 -41.64701,16.81139 -61.96101,26.10438 -151.41903,69.26325 -227.54405,249.76522 -166.93304,405.84035 21.64401,55.7379 64.74202,104.54358 112.12203,140.085 9.969,7.48241 23.372,13.85445 32.456,22.77731 20.81801,25.94834 7.62701,53.89731 -23.692,61.67981 -13.675,0.69022 -22.19601,-3.53113 -33.67901,-10.47336 C 272.2582,776.27255 209.30819,690.01485 185.14618,590.03274 c -23.668,-99.55499 -7.387,-204.42267 45.34901,-292.10583 53.55802,-88.94157 139.87003,-153.30524 240.37506,-179.25057 z"
     id="path3"
     style="fill:url(#radialGradient22);stroke-width:1.00016" />
  <path
     fill="url(#outerRing)"
     d="M 538.95827,0.84248651 C 572.60028,-1.0171108 606.33029,0.2032812 639.75029,4.4886576 707.10031,13.625593 772.01032,35.830725 830.85033,69.858654 c 12.56001,7.138293 26.25001,13.743414 35.63001,25.684249 20.54001,27.876957 -6.02,63.341347 -38.25001,57.580497 -13.72,-2.45179 -26.9,-12.73008 -39.32001,-18.79103 -7.4,-3.61016 -14.59,-7.96656 -22.11,-11.53771 -149.39003,-70.917782 -308.74708,-59.138998 -444.36311,36.21963 -46.30901,33.9259 -85.48101,76.64762 -115.27702,125.72339 -3.312,5.52177 -6.332,11.39066 -9.677,16.8034 -12.64801,20.46956 -19.26901,50.80031 -47.09401,54.57552 -9.899,1.31543 -19.917,-1.33042 -27.877,-7.36136 -7.70001,-5.88789 -13.34101,-14.56268 -14.59401,-24.2608 -3.821,-29.56349 48.28001,-102.72299 67.76001,-127.0458 C 252.0732,102.061 351.85722,36.195842 471.96625,10.742666 c 22.085,-4.680503 44.57402,-7.4123805 66.99202,-9.90017949 z"
     id="path4"
     style="fill:url(#radialGradient21);stroke-width:1.00016" />
  <path
     fill="url(#outerRing)"
     d="M 261.5392,882.01652 C 240.1562,869.74258 224.61519,853.48735 207.43719,836.35185 159.83118,788.85659 122.50318,729.91766 98.65617,666.97744 76.105165,607.45833 65.855163,533.34653 69.843164,469.70209 c 1.069,-12.80412 0.621,-26.41049 6.117001,-38.2473 9.299002,-19.80335 32.477005,-26.38346 51.626015,-16.96844 29.797,14.6517 19.188,53.01203 19.016,81.35213 -0.116,44.78639 6.788,89.31269 20.46001,131.95638 29.274,88.44841 96.10001,172.35536 173.84503,223.13167 18.343,11.98385 31.707,18.87607 51.27701,28.64921 3.195,1.63052 3.212,0.98031 4.677,3.62116 -3.886,1.97062 -131.88303,0.45014 -135.32203,-1.18038 z"
     id="path7"
     style="fill:url(#radialGradient20);stroke-width:1.00016" />
  <path
     fill="url(#outerRing)"
     d="m 919.74035,172.01147 c 32.63001,-3.7262 40.13001,12.23293 57.11001,34.81518 25.37004,33.74484 44.31004,69.08519 60.46004,107.94267 33.93,83.52583 43.67,174.92318 28.1,263.72971 -5.2,28.68921 -4.54,53.2271 -35.14,64.68078 -22.57,3.65117 -43.92003,-6.96224 -47.86003,-30.4898 -1.95,-11.64374 2.98,-31.4601 5.36,-43.13385 23.44003,-115.26903 -10.80001,-236.10684 -81.97002,-328.31245 -8.02,-10.05323 -16.96,-20.14548 -15.68,-34.08196 1.65,-18.03278 12.44,-30.37975 29.62,-35.15028 z"
     id="path8"
     style="fill:url(#radialGradient19);stroke-width:1.00016" />
  <path
     fill="url(#outerRing)"
     d="m 745.01031,880.29597 c 67.14002,-30.36976 121.95003,-77.37486 165.13004,-136.92399 10.62,-14.65471 24.20001,-39.13256 36.70001,-50.29615 29.65,-26.4485 76.61004,10.48337 57.56004,46.34488 -29.14004,54.83762 -75.25005,106.12409 -123.96006,143.85622 -23.53,1.39044 -47.86001,0.31009 -71.47001,0.75024 -4.86,0.09 -11.57,0.30009 -16.35001,-0.17006 -4.68,0.48016 -52.24001,1.2604 -53.19001,0.3201 -0.46,-1.82058 4.43,-3.4411 5.58,-3.88124 z"
     id="path9"
     style="fill:url(#radialGradient18);stroke-width:1.00016" />
  <path
     fill="url(#outerRing)"
     d="m 745.01031,880.29597 c 0.12,1.07034 0.04,2.04065 0.75,2.84091 3.23001,0.73023 38.05001,-0.36012 46.86001,0.72023 -4.68,0.48016 -52.24001,1.2604 -53.19001,0.3201 -0.46,-1.82058 4.43,-3.4411 5.58,-3.88124 z"
     id="path10"
     style="fill:url(#radialGradient17);stroke-width:1.00016" />
  <g
     transform="matrix(1.5000003,0,0,1.5004819,-182.00005,-251.08065)"
     id="g7">
    <path
       fill="url(#grad)"
       d="m 450.67116,479.41522 c -13.88,-8.898 -27.584,-17.671 -41.59,-26.889 -13.622,-8.966 -42.283,-22.981 -31.127,-43.848 4.712,-8.814 18.266,-14.403 27.517,-9.451 11.639,6.23 23.206,14.324 34.428,21.593 l 59.321,37.795 c 11.74,10.136 15.06,32.125 5.39,43.78 -8.03,11.026 -62.652,38.859 -75.681,49.218 -13.593,10.82 -35.598,23.28 -49.316,4.49 -4.088,-5.64 -5.665,-12.713 -4.357,-19.551 0.612,-3.282 3.086,-9.21 5.502,-11.155 20.512,-16.515 48.038,-30.921 69.913,-45.982 z"
       id="path11"
       style="fill:url(#radialGradient15)" />
    <path
       fill="url(#grad)"
       d="m 628.05016,588.66322 c -5.64,10.67 -9.9,17.06 -22.98,17.29 -35.22,0.56 -71.51,1.61 -106.62,-0.4 -18.59,-1.07 -24.55,-27.68 -13.26,-40.08 1.85,-2.2 7.03,-6.01 9.93,-6.31 20.47,-2.13 41.64,-0.27 62.23,-0.71 14.88,-0.31 30.61,0.95 45.38,-0.21 l 1.33,-0.12 c 17.71,1.34 25.91,13.32 23.99,30.54 z"
       id="path12"
       style="fill:url(#radialGradient16)" />
  </g>
</svg>
