<?xml version="1.0" encoding="UTF-8" standalone="no"?>
<svg
   width="1141.6332"
   height="1141.6332"
   viewBox="-69.0032 0 1141.6332 1141.6332"
   version="1.1"
   id="svg12"
   xmlns="http://www.w3.org/2000/svg"
   xmlns:svg="http://www.w3.org/2000/svg">
  <defs id="defs12">
    <!-- Fork variant: yellow/orange outer ring, original blue inner W -->
    <radialGradient id="outerRing" cx="502" cy="502" r="575" gradientUnits="userSpaceOnUse">
      <stop offset="0%" stop-color="#F5D547"/>
      <stop offset="60%" stop-color="#F9A825"/>
      <stop offset="100%" stop-color="#F57C00"/>
    </radialGradient>
    <radialGradient id="grad" cx="502" cy="502" r="575" gradientUnits="userSpaceOnUse">
      <stop offset="0%" stop-color="#50c6f7"/>
      <stop offset="100%" stop-color="#00528a"/>
    </radialGradient>
    <linearGradient id="standGrad" x1="0" y1="900" x2="0" y2="1141" gradientUnits="userSpaceOnUse">
      <stop offset="0%" stop-color="#6b7280"/>
      <stop offset="100%" stop-color="#4b5563"/>
    </linearGradient>
  </defs>
  <path
     fill="url(#standGrad)"
     d="m 195.98916,913.93322 c 51.2,-0.52 102.403,-0.61 153.604,-0.25 l 250.847,-0.35 c 49.91,-0.34 99.82,-0.23 149.73,0.31 61.03,0.35 105.99,-5.75 154.47,40.18 29.62,27.93 46.81,66.54998 47.75,107.24998 0.92,38.5 7.75,80.27 -45.77,79.63 -8.26,-0.09 -16.99,0.01 -25.3,0.04 l -72.44,0.21 -454.949,0.68 -169.533,-0.62 -64.169,-0.08 c -16.931,-0.08 -40.434996,2.87 -53.586996,-9 -10.065,-9.09 -12.425,-20.81 -13.174,-33.7 -3.03,-52.11 3.996,-97.28 40.84,-136.98998 26.392996,-28.47 62.900996,-45.46 101.680996,-47.31 z"
     id="path1" />
  <path
     fill="url(#outerRing)"
     d="m 531.95016,108.63522 c 4.75,-0.249 9.08,-0.272 13.84,0.049 204.9,13.817 365.12,206.011 350.7,410.278 -8.25,106.611 -58.35,205.631 -139.35,275.431 -58.49,50.65 -137.48,84.45 -214.64,90.7 -32.65,2.65 -66.53,1.41 -99.177,-0.9 -7.539,-1.01 -13.238,-1.73 -20.489,-4.99 -31.24,-14.04 -24.983,-62.21 7.666,-69.49 14.018,-2.25 28.847,1.9 42.97,3.35 199.15,20.42 373.58,-163.94 344.8,-361.426 -5.33,-36.547 -20.37,-78.812 -38.5,-111.132 -39.45,-69.452 -103.86,-121.276 -180.15,-144.936 -9.88,-2.988 -19.9,-5.465 -30.04,-7.422 -24.96,-4.687 -59.66,-3.496 -67.88,-32.626 -2.78,-9.977 -1.34,-20.657 3.98,-29.54 6.66,-11.049 14.62,-14.548 26.27,-17.346 z"
     id="path2" />
  <path
     fill="url(#outerRing)"
     d="m 401.87016,118.63822 c 8.495,-0.521 14.744,-0.285 22.765,3.578 9.513,4.661 16.7,13.018 19.883,23.122 4.187,13.571 -0.456,30.453 -11.732,38.349 -18.29,12.419 -41.647,16.806 -61.961,26.096 -151.419,69.241 -227.544,249.685 -166.933,405.71 21.644,55.72 64.742,104.51 112.122,140.04 9.969,7.48 23.372,13.85 32.456,22.77 20.818,25.94 7.627,53.88 -23.692,61.66 -13.675,0.69 -22.196,-3.53 -33.679,-10.47 -87.841,-53.47 -150.791,-139.7 -174.953,-239.65 -23.667996,-99.523 -7.387,-204.357 45.349,-292.012 53.558,-88.913 139.87,-153.256 240.375,-179.193 z"
     id="path3" />
  <path
     fill="url(#outerRing)"
     d="m 469.95816,0.84221591 c 33.642,-1.85900001 67.372,-0.639 100.792,3.64499999 67.35,9.1340001 132.26,31.3320001 191.1,65.3490001 12.56,7.136 26.25,13.739 35.63,25.676 20.54,27.868004 -6.02,63.321004 -38.25,57.562004 -13.72,-2.451 -26.9,-12.726 -39.32,-18.785 -7.4,-3.609 -14.59,-7.964 -22.11,-11.534 -149.39,-70.895004 -308.747,-59.120004 -444.363,36.208 -46.309,33.915 -85.481,76.623 -115.277,125.683 -3.312,5.52 -6.332,11.387 -9.677,16.798 -12.648,20.463 -19.269,50.784 -47.093996,54.558 -9.899,1.315 -19.917,-1.33 -27.877,-7.359 -7.7,-5.886 -13.341,-14.558 -14.594,-24.253 -3.821,-29.554 48.28,-102.69 67.759996,-127.005 76.395,-95.357 176.179,-161.201004 296.288,-186.646004 22.085,-4.6790001 44.574,-7.4100001 66.992,-9.89700009 z"
     id="path4" />
  <path
     fill="url(#outerRing)"
     d="m 192.53916,881.73322 c -21.383,-12.27 -36.924,-28.52 -54.102,-45.65 -47.605996,-47.48 -84.933996,-106.4 -108.780996,-169.32 -22.5510002,-59.5 -32.8010002,-133.588 -28.81300022,-197.212 1.06900002,-12.8 0.62100002,-26.402 6.11700002,-38.235 9.2990002,-19.797 32.4770002,-26.375 51.6260002,-16.963 29.797,14.647 19.188,52.995 19.016,81.326 -0.116,44.772 6.788,89.284 20.46,131.914 29.273996,88.42 96.099996,172.3 173.844996,223.06 18.343,11.98 31.707,18.87 51.277,28.64 3.195,1.63 3.212,0.98 4.677,3.62 -3.886,1.97 -131.883,0.45 -135.322,-1.18 z"
     id="path7" />
  <path
     fill="url(#outerRing)"
     d="m 850.74016,171.95622 c 32.63,-3.725 40.13,12.229 57.11,34.804 25.37,33.734 44.31,69.063 60.46,107.908 33.93004,83.499 43.67004,174.867 28.1,263.645 -5.2,28.68 -4.54,53.21 -35.14,64.66 -22.57,3.65 -43.92,-6.96 -47.86,-30.48 -1.95,-11.64 2.98,-31.45 5.36,-43.12 23.44,-115.232 -10.8,-236.031 -81.97,-328.207 -8.02,-10.05 -16.96,-20.139 -15.68,-34.071 1.65,-18.027 12.44,-30.37 29.62,-35.139 z"
     id="path8" />
  <path
     fill="url(#outerRing)"
     d="m 676.01016,880.01322 c 67.14,-30.36 121.95,-77.35 165.13,-136.88 10.62,-14.65 24.2,-39.12 36.7,-50.28 29.65,-26.44 76.61,10.48 57.56,46.33 -29.14,54.82 -75.25,106.09 -123.96,143.81 -23.53,1.39 -47.86,0.31 -71.47,0.75 -4.86,0.09 -11.57,0.3 -16.35,-0.17 -4.68,0.48 -52.24,1.26 -53.19,0.32 -0.46,-1.82 4.43,-3.44 5.58,-3.88 z"
     id="path9" />
  <path
     fill="url(#outerRing)"
     d="m 676.01016,880.01322 c 0.12,1.07 0.04,2.04 0.75,2.84 3.23,0.73 38.05,-0.36 46.86,0.72 -4.68,0.48 -52.24,1.26 -53.19,0.32 -0.46,-1.82 4.43,-3.44 5.58,-3.88 z"
     id="path10" />
  <g transform="matrix(1.5 0 0 1.5 -251 -251)">
    <path
       fill="url(#grad)"
       d="m 450.67116,479.41522 c -13.88,-8.898 -27.584,-17.671 -41.59,-26.889 -13.622,-8.966 -42.283,-22.981 -31.127,-43.848 4.712,-8.814 18.266,-14.403 27.517,-9.451 11.639,6.23 23.206,14.324 34.428,21.593 l 59.321,37.795 c 11.74,10.136 15.06,32.125 5.39,43.78 -8.03,11.026 -62.652,38.859 -75.681,49.218 -13.593,10.82 -35.598,23.28 -49.316,4.49 -4.088,-5.64 -5.665,-12.713 -4.357,-19.551 0.612,-3.282 3.086,-9.21 5.502,-11.155 20.512,-16.515 48.038,-30.921 69.913,-45.982 z"
       id="path11" />
    <path
       fill="url(#grad)"
       d="m 628.05016,588.66322 c -5.64,10.67 -9.9,17.06 -22.98,17.29 -35.22,0.56 -71.51,1.61 -106.62,-0.4 -18.59,-1.07 -24.55,-27.68 -13.26,-40.08 1.85,-2.2 7.03,-6.01 9.93,-6.31 20.47,-2.13 41.64,-0.27 62.23,-0.71 14.88,-0.31 30.61,0.95 45.38,-0.21 l 1.33,-0.12 c 17.71,1.34 25.91,13.32 23.99,30.54 z"
       id="path12" />
  </g>
</svg>
